<svg clip-rule="evenodd" fill-rule="evenodd" stroke-linecap="round" stroke-linejoin="round" stroke-miterlimit="1.5" viewBox="0 0 100 100" xmlns="http://www.w3.org/2000/svg"><path d="m0 0h100v100h-100z" fill="none"/><ellipse cx="37.5" cy="56" rx="7.5" ry="9" transform="matrix(1.16667 0 0 1.13889 -2.5 -14.0278)"/><g stroke="#000"><path d="m23.702 37.5c1.352 0 2.664-.457 3.724-1.296 2.74-2.169 8.224-6.51 10.953-8.671.301-.238.711-.283 1.056-.116.346.167.565.517.565.9v43.366c0 .383-.219.733-.565.9-.345.167-.755.122-1.056-.116-2.729-2.161-8.213-6.502-10.953-8.671-1.06-.839-2.372-1.296-3.724-1.296-3.053 0-8.699 0-11.702 0-.53 0-1.039-.211-1.414-.586s-.586-.884-.586-1.414c0-4.683 0-16.317 0-21 0-.53.211-1.039.586-1.414s.884-.586 1.414-.586z" fill="#ffca00" stroke-width="4" transform="translate(5)"/><path d="m49.609 24.917c3.463 7.65 5.391 16.143 5.391 25.083s-1.928 17.433-5.391 25.083" fill="none" stroke-width="6.27" transform="matrix(.79735 0 0 .79735 20.4441 10.1325)"/><path d="m81.092 4.98c6.993 13.483 10.945 28.794 10.945 45.02s-3.952 31.537-10.945 45.02" fill="none" stroke-width="7.5" transform="matrix(.666374 0 0 .666374 20.9626 16.6813)"/></g></svg>